<?xml version="1.0" standalone="no"?>
<!DOCTYPE svg PUBLIC "-//W3C//DTD SVG 20010904//EN"
 "http://www.w3.org/TR/2001/REC-SVG-20010904/DTD/svg10.dtd">
<svg version="1.0" xmlns="http://www.w3.org/2000/svg"
 width="482.000000pt" height="482.000000pt" viewBox="0 0 482.000000 482.000000"
 preserveAspectRatio="xMidYMid meet">
<metadata>
Created by potrace 1.14, written by Peter Selinger 2001-2017
</metadata>
<g transform="translate(0.000000,482.000000) scale(0.100000,-0.100000)"
fill="#000000" stroke="none">
<path d="M10 2410 l0 -2410 2405 0 2405 0 0 2410 0 2410 -2405 0 -2405 0 0
-2410z m2452 1740 c41 -69 189 -316 328 -550 140 -234 427 -713 638 -1065
l383 -640 -6 -69 c-8 -89 -33 -218 -44 -229 -11 -11 -25 9 -171 253 -68 113
-140 232 -160 265 -20 33 -56 94 -81 135 -24 41 -48 78 -54 82 -5 4 -429 8
-940 8 l-931 0 -18 -32 c-52 -90 -344 -580 -375 -630 -20 -31 -41 -65 -47 -75
-7 -10 -15 -15 -19 -11 -13 12 -35 120 -41 203 -9 109 -47 35 485 930 407 686
796 1330 904 1498 40 62 53 75 62 65 7 -7 46 -69 87 -138z m-613 -562 c-21
-40 -142 -232 -157 -250 -7 -9 -57 -42 -109 -73 -235 -141 -462 -383 -581
-620 -47 -95 -102 -251 -130 -370 -24 -100 -26 -129 -27 -320 0 -184 3 -223
23 -314 65 -288 187 -519 387 -729 52 -55 95 -103 95 -106 0 -3 -171 -6 -380
-6 -209 0 -380 2 -380 4 0 3 27 50 61 105 l61 101 89 0 c49 0 89 4 89 8 0 5
-31 69 -68 143 -74 146 -119 268 -159 430 -22 90 -26 133 -30 312 -5 226 2
304 43 475 26 106 88 271 142 377 33 65 136 226 174 270 141 168 237 259 371
353 114 80 168 107 427 220 14 6 35 11 48 11 20 1 22 -1 11 -21z m1174 -24
c284 -122 502 -285 688 -516 140 -175 204 -286 278 -490 85 -234 96 -301 96
-598 -1 -226 -3 -266 -23 -350 -38 -165 -83 -288 -159 -438 -40 -80 -71 -147
-68 -150 2 -3 44 -8 91 -11 l87 -6 53 -89 c30 -49 54 -92 54 -96 0 -4 -21 -10
-46 -14 -65 -8 -704 -8 -704 1 0 4 33 41 74 83 224 227 379 536 425 847 16
104 14 372 -4 479 -33 206 -147 476 -268 637 -74 98 -228 254 -316 321 -71 53
-182 123 -218 137 -13 5 -40 35 -59 66 -58 95 -134 226 -134 231 0 10 77 -12
153 -44z m1258 -2455 c89 -149 164 -280 166 -290 5 -18 -2 -19 -113 -19 l-119
0 -100 168 c-55 92 -101 176 -103 188 -3 20 61 196 81 221 5 7 13 11 17 8 5
-3 81 -127 171 -276z m-3605 159 l45 -107 -107 -180 -107 -181 -118 0 c-67 0
-119 4 -119 9 0 9 210 363 300 505 23 37 47 65 52 64 5 -2 29 -51 54 -110z"/>
<path d="M2296 3782 c-70 -114 -567 -940 -636 -1057 -26 -44 -57 -99 -69 -122
l-21 -43 790 0 c434 0 790 3 790 8 0 27 -774 1313 -789 1312 -3 -1 -33 -44
-65 -98z m124 -100 c0 -4 25 -50 55 -101 31 -52 53 -96 50 -100 -19 -18 -325
-10 -325 9 0 4 25 51 57 104 l56 96 54 0 c29 0 53 -4 53 -8z"/>
</g>
</svg>
